<?xml version="1.0" encoding="utf-8"?>
<!-- Generator: Adobe Illustrator 23.0.5, SVG Export Plug-In . SVG Version: 6.00 Build 0)  -->
<svg version="1.1" id="Layer_1" xmlns="http://www.w3.org/2000/svg" xmlns:xlink="http://www.w3.org/1999/xlink" x="0px" y="0px"
	 viewBox="0 0 1920 1080" enable-background="new 0 0 1920 1080" xml:space="preserve">
<path fill="#F6F5AE" stroke="#565554" stroke-width="10" stroke-miterlimit="10" d="M1770,1019H150c-49.71,0-90-40.29-90-90V209
	c0-49.71,40.29-90,90-90h1620c49.71,0,90,40.29,90,90v720C1860,978.71,1819.71,1019,1770,1019z"/>
<g>
	<path fill="#2E86AB" d="M325.68,745.93c9.16-22.88,11.24-70.6,11.24-96.41V426.27c0-42.12-9.37-67.44-9.37-67.44
		c18.32,2.92,36.85,3.65,55.59,3.65l29.36-0.24c118.06,0,161.58,83.26,161.58,172.12c0,101.28-56.64,209.86-123.68,209.86
		C408.34,744.22,367.74,744.47,325.68,745.93z M412.5,730.1c49.76,0,88.91-110.53,88.91-207.43c0-75.47-23.74-142.42-84.75-142.42
		h-4.16V730.1z"/>
	<path fill="#2E86AB" d="M708.61,681.41c-17.07,28-44.97,63.06-77.87,63.06c-31.03,0-49.14-25.56-49.14-55.27
		c0-28.48,16.87-60.38,54.97-76.44c29.98-12.66,64.76-21.18,72.25-53.81c-2.08-44.55-22.28-63.3-39.56-63.3c-1.87,0-3.54,0-5.2,0.49
		c-12.7,2.68-18.11,16.56-18.11,32.14c0,19.72,8.74,42.12,21.86,47.47c-4.16,15.34-16.45,26.54-30.61,26.54
		c-17.91,0-32.27-17.29-32.27-38.71c0-51.37,46.43-83.51,90.78-83.51c34.36,0,67.46,19.23,77.25,63.79
		c3.12,14.36,3.96,30.67,3.96,47.96c0,19.48-1.04,40.17-1.04,60.38c0,34.33,2.91,67.68,19.16,92.27
		c-11.87-3.16-23.11-4.38-33.32-4.38c-39.77,0-65.17,18.75-65.17,18.75C703.4,741.06,706.94,711.84,708.61,681.41z M709.86,648.54
		l0.21-19.72c0-20.69-0.42-38.71-0.83-48.69c-16.87,28.49-49.76,43.34-55.39,63.79c-0.83,3.41-1.25,7.06-1.25,10.47
		c0,18.5,11.24,36.03,24.99,36.03C688.41,690.42,700.7,679.46,709.86,648.54z"/>
	<path fill="#565554" d="M803.57,461.81c3.96-6.09,5.2-13.88,5.2-22.4c0-11.69-2.08-24.83-2.08-37.01
		c0-21.91,6.87-40.41,46.23-40.41H855c-6.87,14.37-7.5,29.46-7.5,43.82v9.49C847.51,440.63,845.22,460.84,803.57,461.81z"/>
	<path fill="#2E86AB" d="M913.52,744.47c-17.07,0-34.36,0.97-48.1,3.16c0,0,9.58-25.32,9.58-67.44V426.27
		c0-42.12-9.58-67.44-9.58-67.44c12.7,1.95,28.53,3.41,44.35,3.41l184.07-0.49c-18.11,23.37-29.15,51.37-32.48,80.58
		c-17.7-35.79-67.88-54.78-108.07-54.78c-1.46,10.23-2.71,22.4-2.71,36.76v112.97h90.99c-6.25,15.09-11.04,31.4-14.58,48.93
		c-30.19-13.39-58.09-19.96-76.42-23.13v118.32c0,41.39,9.37,66.22,9.37,66.22C946.63,745.44,930.18,744.47,913.52,744.47z"/>
	<path fill="#2E86AB" d="M1166.52,681.41c-17.07,28-44.97,63.06-77.87,63.06c-31.03,0-49.14-25.56-49.14-55.27
		c0-28.48,16.87-60.38,54.97-76.44c29.98-12.66,64.76-21.18,72.25-53.81c-2.08-44.55-22.28-63.3-39.56-63.3c-1.87,0-3.54,0-5.2,0.49
		c-12.7,2.68-18.11,16.56-18.11,32.14c0,19.72,8.74,42.12,21.86,47.47c-4.16,15.34-16.45,26.54-30.61,26.54
		c-17.91,0-32.27-17.29-32.27-38.71c0-51.37,46.43-83.51,90.78-83.51c34.36,0,67.46,19.23,77.25,63.79
		c3.12,14.36,3.96,30.67,3.96,47.96c0,19.48-1.04,40.17-1.04,60.38c0,34.33,2.91,67.68,19.16,92.27
		c-11.87-3.16-23.11-4.38-33.32-4.38c-39.77,0-65.17,18.75-65.17,18.75C1161.31,741.06,1164.85,711.84,1166.52,681.41z
		 M1167.77,648.54l0.21-19.72c0-20.69-0.42-38.71-0.83-48.69c-16.87,28.49-49.76,43.34-55.39,63.79c-0.83,3.41-1.25,7.06-1.25,10.47
		c0,18.5,11.24,36.03,24.99,36.03C1146.32,690.42,1158.61,679.46,1167.77,648.54z"/>
	<path fill="#2E86AB" d="M1354.35,744.47c-47.47,0-92.87-39.2-92.87-121.73v-2.68c0.62-51.13,21.45-100.31,57.05-124.89
		c13.95-9.49,32.07-15.1,49.97-15.1c30.4,0,59.76,16.07,65.17,55.75c0.21,1.95,0.42,4.14,0.42,6.09c0,19.96-12.29,39.68-29.78,43.09
		c-1.87,0.49-3.75,0.49-5.62,0.49c-9.99,0-19.16-5.36-25.19-13.88c13.95-20.45,19.36-38.47,19.36-51.61
		c0-15.58-7.29-25.08-16.87-25.08c-8.54,0-18.53,7.3-26.86,24.1c-8.74,17.53-14.58,42.6-14.58,67.19
		c0,36.76,12.91,72.79,48.52,84.24c5.83,1.95,12.08,2.92,18.32,2.92c21.24,0,43.31-11.2,58.93-35.06
		C1448.46,707.95,1400.37,744.47,1354.35,744.47z"/>
	<path fill="#2E86AB" d="M1570.08,744.47c-28.53-0.73-61.63-20.45-78.5-61.35c-8.54-20.69-13.12-46.74-13.12-77.42
		c0-37.01,0.42-73.77,0.42-111.02h-26.44v-14.85c52.89,0,92.45-58.92,101.82-96.41v96.41h47.27v14.85h-47.27v138.53
		c0,14.61,1.87,79.37,21.45,79.37h1.25c7.5-0.97,11.04-13.63,11.04-25.32c0-8.03-1.67-15.58-5-18.75c3.96-2.68,8.33-3.65,12.7-3.65
		c14.78,0,29.98,13.63,29.98,33.35c0,1.95-0.21,3.9-0.42,5.84c-3.96,28.49-29.36,40.41-53.1,40.41H1570.08z"/>
</g>
</svg>
